# xmcd
#
# Track frame offsets: 
#        150
#        9642
#        28727
#        30606
#        49368
#        50731
#        71810
#        72768
#        97733
#        99365
#        124355
#        126909
#        143401
#        144736
#        165161
#        166510
#        182598
#        184987
#        210918
#        211843
#        227653
#        229556
#        250555
#        253012
#        276422
#        301637
#
# Disc length: 4168 seconds
#
# Revision: 1
# Processed by: cddbd v1.5.2PL0 Copyright (c) Steve Scherf et al.
# Submitted via: ExactAudioCopyFreeDBPlugin 1.0
#
DISCID=5f10461a
DTITLE=Joi - Tennessee Slim Is The Bomb
DYEAR=2004
DGENRE=R&B
TTITLE0=Intro Feat. Keypsiia Blue Daydreamer and Uncle George
TTITLE1=Tennessee Slim Is The Bomb
TTITLE2=Uncle Speaks
TTITLE3=I'm So Famous
TTITLE4=Uncle Speaks
TTITLE5=To My Lover's House, I Go Feat. Kebbi Williams
TTITLE6=Uncle Speaks
TTITLE7=Another Rocket
TTITLE8=Uncle Speaks
TTITLE9=Co-Stars Feat. Whild Peach and Heroine
TTITLE10=Uncle Speaks
TTITLE11=Dance With Yesterday
TTITLE12=Uncle Speaks
TTITLE13=Lifetime Of Nightime
TTITLE14=Uncle Speaks
TTITLE15=Cloud Nine Feat. Pharcyde
TTITLE16=Uncle Speaks
TTITLE17=Gravity
TTITLE18=Uncle Speaks
TTITLE19=Maybe
TTITLE20=Uncle Speaks
TTITLE21=Say, Say, Li'l Fine Ass Niggah Feat. Trauma Black, Bun B and Pa
TTITLE21=stor Troy
TTITLE22=Uncle Speaks - I Corinthians
TTITLE23=I Love You Forever, Right Now Feat. Phil Upchurch and Kebbi Wil
TTITLE23=liams
TTITLE24=That's The Truth
TTITLE25=YHWH, Everlasting
EXTD=
EXTT0=
EXTT1=
EXTT2=
EXTT3=
EXTT4=
EXTT5=
EXTT6=
EXTT7=
EXTT8=
EXTT9=
EXTT10=
EXTT11=
EXTT12=
EXTT13=
EXTT14=
EXTT15=
EXTT16=
EXTT17=
EXTT18=
EXTT19=
EXTT20=
EXTT21=
EXTT22=
EXTT23=
EXTT24=
EXTT25=
PLAYORDER=
